# AST/ASF file generated using VICON BodyLanguage
# -----------------------------------------------
:version 1.10
:name VICON
:units
  mass 1.0
  length 0.45
  angle deg
:documentation
   .ast/.asf automatically generated from VICON data using
   VICON BodyBuilder and BodyLanguage model FoxedUp or BRILLIANT.MOD
:root
   order TX TY TZ RX RY RZ
   axis XYZ
   position 0 0 0  
   orientation 0 0 0 
:bonedata
  begin
     id 1 
     name lhipjoint
     direction 0.576517 -0.752066 0.319413 
     length 2.45433 
     axis 0 0 0  XYZ
  end
  begin
     id 2 
     name lfemur
     direction 0.34202 -0.939693 0  
     length 7.54459  
     axis 0 0 20  XYZ
    dof rx ry rz
    limits (-160.0 20.0)
           (-70.0 70.0)
           (-60.0 70.0)
  end
  begin
     id 3 
     name ltibia
     direction 0.34202 -0.939693 0   
     length 7.73986   
     axis 0 0 20   XYZ
    dof rx
    limits (-10.0 170.0)
  end
  begin
     id 4 
     name lfoot
     direction 0.090693 -0.249177 0.964202   
     length 2.28437   
     axis -90 7.62852e-016 20   XYZ
    dof rx rz
    limits (-45.0 90.0)
           (-70.0 20.0)
  end
  begin
     id 5 
     name ltoes
     direction 1.5356e-011 -4.21928e-011 1   
     length 1.14243   
     axis -90 7.62852e-016 20   XYZ
    dof rx
    limits (-90.0 20.0)
  end
  begin
     id 6 
     name rhipjoint
     direction -0.573937 -0.753736 0.320122   
     length 2.44889  
     axis 0 0 0  XYZ 
  end
  begin
     id 7 
     name rfemur
     direction -0.34202 -0.939693 0   
     length 7.50166   
     axis 0 0 -20   XYZ
    dof rx ry rz
    limits (-160.0 20.0)
           (-70.0 70.0)
           (-70.0 60.0)
  end
  begin
     id 8 
     name rtibia
     direction -0.34202 -0.939693 0   
     length 7.54266   
     axis 0 0 -20   XYZ
    dof rx
    limits (-10.0 170.0)
 end
 begin
     id 9 
     name rfoot
     direction -0.114017 -0.31326 0.942798   
     length 2.34212  
     axis -90 -7.62852e-016 -20   XYZ
    dof rx rz
    limits (-45.0 90.0)
           (-20.0 70.0)
  end
  begin
     id 10 
     name rtoes
     direction -1.53557e-011 -4.21867e-011 1   
     length 1.16246   
     axis -90 -7.62852e-016 -20   XYZ
    dof rx
    limits (-90.0 20.0)
  end
  begin
     id 11 
     name lowerback
     direction -0.0228371 0.999155 -0.034167   
     length 2.0537   
     axis 0 0 0   XYZ
    dof rx ry rz
    limits (-20.0 45.0)
           (-30.0 30.0)
           (-30.0 30.0)
  end
  begin
     id 12 
     name upperback
     direction 0.0198981 0.999794 0.00389455   
     length 2.05302   
     axis 0 0 0   XYZ
    dof rx ry rz
    limits (-20.0 45.0)
           (-30.0 30.0)
           (-30.0 30.0)
  end
  begin
     id 13 
     name thorax
     direction 0.0304566 0.99935 0.0192987   
     length 2.05315   
     axis 0 0 0   XYZ
    dof rx ry rz
    limits (-20.0 45.0)
           (-30.0 30.0)
           (-30.0 30.0)
  end
  begin
     id 14 
     name lowerneck
     direction -0.0196762 0.99417 0.106017   
     length 1.82056   
     axis 0 0 0   XYZ
    dof rx ry rz
    limits (-20.0 45.0)
           (-30.0 30.0)
           (-30.0 30.0)
  end
  begin
     id 15 
     name upperneck
     direction 0.00517787 0.9802 -0.197944   
     length 1.83835   
     axis 0 0 0   XYZ
    dof rx ry rz
    limits (-20.0 45.0)
           (-30.0 30.0)
           (-30.0 30.0)
  end
  begin
     id 16
     name head
     direction 0.00211419 0.996945 -0.078081  
     length 1.85629  
     axis 0 0 0   XYZ
    dof rx ry rz
    limits (-20.0 45.0)
           (-30.0 30.0)
           (-30.0 30.0)
  end
  begin
     id 17 
     name lclavicle
     direction 0.930001 0.365811 -0.0357824  
     length 3.81961  
     axis 0 0 0   XYZ
    dof ry rz
    limits (-20.0 10.0)
           (0.0 20.0)
  end
  begin
     id 18 
     name lhumerus
     direction 1 -4.48968e-011 -3.06644e-027   
     length 5.14507   
     axis 180 -30 -90   XYZ
    dof rx ry rz
    limits (-60.0 90.0)
           (-90.0 90.0)
           (-90.0 90.0)
  end
  begin
     id 19
     name lradius
     direction 1 -4.48965e-011 9.06925e-028   
     length 3.50646   
     axis 180 -30 -90   XYZ
    dof rx
    limits (-10.0 170.0)
  end
  begin
     id 20
     name lwrist
     direction 1 -4.48957e-011 1.03922e-027   
     length 1.75323   
     axis -2.56395e-016 90 90   XYZ
    dof ry
    limits (-180.0 0.0)
 end
  begin
     id 21 
     name lhand
     direction 1 -4.48967e-011 2.08017e-027   
     length 0.629969   
     axis -1.32723e-015 90 90   XYZ
    dof rx rz
    limits (-90.0 90.0)
           (-45.0 45.0)
  end
  begin
     id 22 
     name lfingers
     direction 1 -4.49089e-011 4.20095e-027   
     length 0.507897   
     axis -2.6545e-015 90 90   XYZ
    dof rx
    limits (0.0 90.0)
  end
  begin
     id 23
     name lthumb
     direction 0.707107 -6.35001e-011 0.707107   
     length 0.729241   
     axis -90 45 5.05613e-014   XYZ
    dof rx rz
    limits (-45.0 45.0)
           (-45.0 45.0)
  end
  begin
     id 24 
     name rclavicle
     direction -0.881882 0.464123 -0.0829113   
     length 3.47515  
     axis 0 0 0   XYZ 
    dof ry rz
    limits (-10.0 20.0)
           (-20.0 0.0)
  end
  begin
     id 25 
     name rhumerus
     direction -1 -4.48961e-011 -1.55672e-027  
     length 5.232   
     axis 180 30 90   XYZ
    dof rx ry rz
    limits (-90.0 60.0)
           (-90.0 90.0)
           (-90.0 90.0)
  end
  begin
     id 26 
     name rradius
     direction -1 -4.48963e-011 6.18178e-029   
     length 3.65641   
     axis 180 30 90   XYZ
    dof rx
    limits (-10.0 170.0)
  end
  begin
     id 27 
     name rwrist
     direction -1 -4.48982e-011 1.04136e-027   
     length 1.8282   
     axis -2.56395e-016 -90 -90   XYZ
    dof ry
    limits (-180.0 0.0)
  end
  begin
     id 28
     name rhand
     direction -1 -4.48929e-011 2.07378e-027   
     length 0.656807   
     axis -1.32723e-015 -90 -90   XYZ
    dof rx rz
    limits (-90.0 90.0)
           (-45.0 45.0)
  end
  begin
     id 29
     name rfingers
     direction -1 -4.489e-011 4.13816e-027   
     length 0.529535   
     axis -2.6545e-015 -90 -90   XYZ
    dof rx
    limits (0.0 90.0)
  end
  begin
     id 30
     name rthumb
     direction -0.707107 -6.34843e-011 0.707107   
     length 0.760309   
     axis -90 -45 -5.05613e-014   XYZ
    dof rx rz
    limits (-45.0 45.0)
           (-45.0 45.0)
  end
:hierarchy
  begin
    root lhipjoint rhipjoint lowerback
    lhipjoint lfemur
    lfemur ltibia
    ltibia lfoot
    lfoot ltoes
    rhipjoint rfemur
    rfemur rtibia
    rtibia rfoot
    rfoot rtoes
    lowerback upperback
    upperback thorax
    thorax lowerneck lclavicle rclavicle
    lowerneck upperneck
    upperneck head
    lclavicle lhumerus
    lhumerus lradius
    lradius lwrist
    lwrist lhand lthumb
    lhand lfingers
    rclavicle rhumerus
    rhumerus rradius
    rradius rwrist
    rwrist rhand rthumb
    rhand rfingers
  end

#!OML:ASF H:\ManfredETheater\Project 1\Capture day 1\Session 1\subject.ASF
:FULLY-SPECIFIED
:DEGREES
16
root 13.3996 15.4714 -38.4884 24.726 10.0916 19.7119
lowerback 21.0501 -3.42677 -7.05579
upperback 1.55642 -6.54403 -4.20889
thorax -9.78381 -2.85752 1.2335
lowerneck -10.9041 -11.8243 -12.2903
upperneck -4.0538 -14.5472 13.5941
head 2.45408 -6.93487 5.0869
rclavicle -6.7388e-014 -1.98785e-014
rhumerus -54.2639 -1.07946 -85.6503
rradius 60.7035
rwrist -18.9261
rhand -30.397 4.24058
rfingers 7.12502
rthumb -3.70087 -25.707
lclavicle -6.7388e-014 -1.98785e-014
lhumerus -29.9276 -20.7217 93.4179
lradius 109.916
lwrist 11.3862
lhand -21.6563 -11.9655
lfingers 7.12502
lthumb 4.74065 17.9615
rfemur -39.7389 -13.5037 21.7149
rtibia 105.755
rfoot -8.7372 -3.03159
rtoes -35.1515
lfemur -50.1374 0.429673 -28.0532
ltibia 65.9369
lfoot -32.403 -11.0743
ltoes -10.1645
17
root 13.2944 15.4544 -38.046 24.9698 10.1252 20.4704
lowerback 21.1659 -3.7149 -7.44892
upperback 1.40041 -7.04716 -4.27184
thorax -9.95501 -3.06685 1.53182
lowerneck -11.1941 -11.7247 -12.2947
upperneck -3.9515 -14.3871 13.5521
head 2.50634 -6.84406 5.07526
rclavicle -7.95139e-015 3.10104e-014
rhumerus -56.7262 -1.34393 -85.0545
rradius 60.5818
rwrist -19.327
rhand -30.7642 5.02536
rfingers 7.12502
rthumb -4.05546 -24.9158
lclavicle -7.95139e-015 3.10104e-014
lhumerus -27.1377 -21.6161 94.7266
lradius 111.773
lwrist 11.9456
lhand -21.649 -12.0228
lfingers 7.12502
lthumb 4.74773 17.904
rfemur -44.2193 -14.2832 20.6979
rtibia 107.951
rfoot -10.1011 -2.50444
rtoes -35.0931
lfemur -47.8891 0.0699168 -27.9418
ltibia 64.8876
lfoot -33.5083 -10.7064
ltoes -11.0854
18
root 13.1876 15.4432 -37.5986 25.2039 10.0862 21.1323
lowerback 21.2015 -3.99655 -7.78014
upperback 1.23907 -7.51705 -4.28951
thorax -10.0862 -3.26342 1.83038
lowerneck -11.5203 -11.6116 -12.2876
upperneck -3.82136 -14.206 13.4524
head 2.56379 -6.74259 5.04498
rclavicle -5.4467e-014 -5.24792e-014
rhumerus -59.2767 -1.4029 -84.4771
rradius 60.9673
rwrist -19.1399
rhand -31.0085 5.92929
rfingers 7.12502
rthumb -4.29136 -24.0072
lclavicle -5.4467e-014 -5.24792e-014
lhumerus -24.547 -22.6459 96.0838
lradius 113.935
lwrist 12.869
lhand -21.6054 -11.9855
lfingers 7.12502
lthumb 4.7898 17.9403
rfemur -48.7223 -14.8932 19.7687
rtibia 109.577
rfoot -11.2567 -2.17687
rtoes -34.8604
lfemur -45.5763 -0.327476 -27.7332
ltibia 63.658
lfoot -34.4113 -10.1219
ltoes -12.7713
19
root 13.0786 15.4401 -37.1433 25.4289 9.96977 21.6502
lowerback 21.1244 -4.26362 -8.00298
upperback 1.07615 -7.92715 -4.26293
thorax -10.1641 -3.43887 2.09152
lowerneck -11.8758 -11.499 -12.274
upperneck -3.6512 -14.0246 13.3076
head 2.63318 -6.64065 4.99826
rclavicle 5.28767e-014 3.57812e-015
rhumerus -61.8686 -1.31258 -83.9383
rradius 61.7621
rwrist -18.5343
rhand -31.1709 6.86431
rfingers 7.12502
rthumb -4.44818 -23.069
lclavicle 5.28767e-014 3.57812e-015
lhumerus -22.1406 -23.8615 97.3952
lradius 116.295
lwrist 14.0602
lhand -21.5255 -11.8909
lfingers 7.12502
lthumb 4.86698 18.0332
rfemur -53.1986 -15.2823 18.9853
rtibia 110.581
rfoot -12.1289 -2.08218
rtoes -34.4539
lfemur -43.2057 -0.761547 -27.3825
ltibia 62.2412
lfoot -35.0656 -9.39833
ltoes -14.8787
20
root 12.9663 15.4479 -36.6773 25.6305 9.753 21.99
lowerback 20.9216 -4.50311 -8.0931
upperback 0.918082 -8.25321 -4.2053
thorax -10.1835 -3.58476 2.27872
lowerneck -12.2364 -11.3952 -12.2653
upperneck -3.44421 -13.8556 13.1525
head 2.7155 -6.54493 4.94693
rclavicle 3.18055e-014 1.90833e-014
rhumerus -64.4521 -1.12472 -83.4691
rradius 62.8414
rwrist -17.7777
rhand -31.2945 7.81844
rfingers 7.12502
rthumb -4.56754 -22.1123
lclavicle 3.18055e-014 1.90833e-014
lhumerus -19.9253 -25.2969 98.566
lradius 118.742
lwrist 15.3911
lhand -21.453 -11.781
lfingers 7.12502
lthumb 4.93694 18.1414
rfemur -57.5521 -15.3874 18.3662
rtibia 110.925
rfoot -12.7217 -2.21824
rtoes -33.8573
lfemur -40.7609 -1.21271 -26.8696
ltibia 60.6321
lfoot -35.4051 -8.46952
ltoes -17.6958
21
root 12.8499 15.4683 -36.1988 25.7861 9.39865 22.1517
lowerback 20.599 -4.69415 -8.06621
upperback 0.774671 -8.47341 -4.13694
thorax -10.1415 -3.69143 2.37233
lowerneck -12.5717 -11.3103 -12.2808
upperneck -3.21566 -13.7139 13.0259
head 2.80804 -6.46291 4.90565
rclavicle -2.40529e-014 -2.98177e-014
rhumerus -66.9614 -0.895 -83.0948
rradius 64.0797
rwrist -17.1195
rhand -31.3802 8.66076
rfingers 7.12502
rthumb -4.65027 -21.2682
lclavicle -2.40529e-014 -2.98177e-014
lhumerus -17.8986 -26.9525 99.5092
lradius 121.156
lwrist 16.6449
lhand -21.3469 -11.6898
lfingers 7.12502
lthumb 5.03942 18.2303
rfemur -61.6701 -15.1832 17.8765
rtibia 110.588
rfoot -13.0603 -2.55969
rtoes -33.103
lfemur -38.2167 -1.65817 -26.224
ltibia 58.8298
lfoot -35.3541 -7.37772
ltoes -21.0088
22
root 12.7286 15.503 -35.7066 25.8539 8.87667 22.1468
lowerback 20.1959 -4.82119 -7.94001
upperback 0.661035 -8.57784 -4.08564
thorax -10.0468 -3.75353 2.35279
lowerneck -12.8609 -11.2498 -12.3308
upperneck -2.97231 -13.6084 12.9609
head 2.91019 -6.39887 4.88587
rclavicle 2.96189e-014 6.55989e-014
rhumerus -69.3242 -0.674415 -82.8457
rradius 65.3355
rwrist -16.7366
rhand -31.4678 9.34065
rfingers 7.12502
rthumb -4.73488 -20.5864
lclavicle 2.96189e-014 6.55989e-014
lhumerus -16.1044 -28.7961 100.15
lradius 123.447
lwrist 17.668
lhand -21.1951 -11.5884
lfingers 7.12502
lthumb 5.18593 18.3282
rfemur -65.4149 -14.6725 17.4705
rtibia 109.564
rfoot -13.1913 -3.07449
rtoes -32.1926
lfemur -35.5197 -2.08429 -25.4803
ltibia 56.8408
lfoot -34.82 -6.219
ltoes -24.5956
23
root 12.6014 15.5515 -35.2008 25.8017 8.14647 22.0098
lowerback 19.7619 -4.86598 -7.77353
upperback 0.580536 -8.56394 -4.07213
thorax -9.91884 -3.76559 2.23503
lowerneck -13.0762 -11.2128 -12.4378
upperneck -2.72071 -13.5384 12.978
head 3.01879 -6.35239 4.89855
rclavicle -5.04913e-014 -4.37326e-015
rhumerus -71.4824 -0.483586 -82.7401
rradius 66.5061
rwrist -16.6982
rhand -31.5604 9.86677
rfingers 7.12502
rthumb -4.82424 -20.0583
lclavicle -5.04913e-014 -4.37326e-015
lhumerus -14.6106 -30.7572 100.467
lradius 125.538
lwrist 18.3662
lhand -20.9861 -11.5741
lfingers 7.12502
lthumb 5.38776 18.3374
rfemur -68.6814 -13.8819 17.098
rtibia 107.885
rfoot -13.1935 -3.72967
rtoes -31.2453
lfemur -32.6412 -2.47781 -24.7025
ltibia 54.6864
lfoot -33.7272 -5.10761
ltoes -28.1807
24
root 12.468 15.6125 -34.6826 25.5928 7.19161 21.7789
lowerback 19.3626 -4.82219 -7.6086
upperback 0.540291 -8.44055 -4.11283
thorax -9.78132 -3.72788 2.03405
lowerneck -13.2193 -11.1972 -12.6138
upperneck -2.4576 -13.4999 13.0831
head 3.13587 -6.32102 4.94755
rclavicle 1.09332e-013 3.61788e-014
rhumerus -73.3709 -0.32903 -82.7877
rradius 67.5078
rwrist -16.9516
rhand -31.6577 10.2317
rfingers 7.12502
rthumb -4.91818 -19.6912
lclavicle 1.09332e-013 3.61788e-014
lhumerus -13.4894 -32.7306 100.472
lradius 127.366
lwrist 18.7064
lhand -20.6438 -11.6122
lfingers 7.12502
lthumb 5.71826 18.2907
rfemur -71.381 -12.8633 16.7293
rtibia 105.602
rfoot -13.1298 -4.47249
rtoes -30.3426
lfemur -29.5569 -2.85413 -23.9513
ltibia 52.4006
lfoot -32.0007 -4.19232
ltoes -31.4653
25
root 12.3283 15.6839 -34.1525 25.2083 6.01107 21.4973
lowerback 19.0381 -4.68977 -7.4869
upperback 0.546402 -8.22061 -4.21923
thorax -9.64374 -3.64368 1.7681
lowerneck -13.2986 -11.1984 -12.8471
upperneck -2.17455 -13.4876 13.2542
head 3.26198 -6.30233 5.0246
rclavicle 7.5737e-014 2.26615e-014
rhumerus -74.9322 -0.207555 -82.9955
rradius 68.2919
rwrist -17.3381
rhand -31.768 10.4306
rfingers 7.12502
rthumb -5.02476 -19.4898
lclavicle 7.5737e-014 2.26615e-014
lhumerus -12.8224 -34.6005 100.216
lradius 128.879
lwrist 18.7305
lhand -20.1506 -11.7023
lfingers 7.12502
lthumb 6.19447 18.1871
rfemur -73.4655 -11.6789 16.3591
rtibia 102.78
rfoot -13.0637 -5.24205
rtoes -29.5348
lfemur -26.2722 -3.23657 -23.2871
ltibia 50.0243
lfoot -29.5835 -3.62178
ltoes -34.199
26
root 12.1817 15.7636 -33.6125 24.6583 4.63704 21.204
lowerback 18.8206 -4.48425 -7.43606
upperback 0.592765 -7.933 -4.38669
thorax -9.52338 -3.5239 1.4679
lowerneck -13.3307 -11.2063 -13.1226
upperneck -1.87328 -13.4875 13.4638
head 3.39412 -6.28976 5.12023
rclavicle -8.34896e-015 -5.08889e-014
rhumerus -76.1155 -0.0902082 -83.3612
rradius 68.8287
rwrist -17.7014
rhand -31.8661 10.4854
rfingers 7.12502
rthumb -5.11942 -19.4328
lclavicle -8.34896e-015 -5.08889e-014
lhumerus -12.6898 -36.2339 99.7918
lradius 130.02
lwrist 18.4757
lhand -19.5418 -11.798
lfingers 7.12502
lthumb 6.7821 18.0734
rfemur -74.9466 -10.4081 16.0249
rtibia 99.4967
rfoot -12.9937 -5.99709
rtoes -28.895
lfemur -22.8502 -3.67625 -22.7511
ltibia 47.6036
lfoot -26.3785 -3.4579
ltoes -36.303
27
root 12.0281 15.8488 -33.0644 23.9527 3.11112 20.9412
lowerback 18.7376 -4.22392 -7.47707
upperback 0.674566 -7.60911 -4.61569
thorax -9.43593 -3.38166 1.15388
lowerneck -13.35 -11.2131 -13.4027
upperneck -1.53717 -13.4905 13.6753
head 3.53588 -6.27864 5.2171
rclavicle -4.77083e-014 -4.57205e-014
rhumerus -76.8901 0.0443933 -83.8861
rradius 69.1236
rwrist -17.9068
rhand -31.9153 10.4188
rfingers 7.12502
rthumb -5.16692 -19.4982
lclavicle -4.77083e-014 -4.57205e-014
lhumerus -13.1551 -37.4846 99.2823
lradius 130.724
lwrist 17.9402
lhand -18.8745 -11.8808
lfingers 7.12502
lthumb 7.42634 17.9689
rfemur -75.8422 -9.13026 15.7635
rtibia 95.8386
rfoot -12.9307 -6.68679
rtoes -28.4632
lfemur -19.3704 -4.23231 -22.3869
ltibia 45.1957
lfoot -22.2129 -3.67215
ltoes -37.6804
